<svg width="15" height="15" viewBox="0 0 15 15" fill="none" xmlns="http://www.w3.org/2000/svg">
<path d="M13.4662 4.96199C13.2904 4.78623 13.052 4.6875 12.8034 4.6875C12.5548 4.6875 12.3164 4.78623 12.1406 4.96199L7.49999 9.60261L2.85936 4.96199C2.68255 4.79121 2.44573 4.69672 2.19992 4.69886C1.95411 4.70099 1.71898 4.79959 1.54516 4.97341C1.37134 5.14723 1.27274 5.38236 1.2706 5.62817C1.26847 5.87398 1.36296 6.1108 1.53374 6.28761L6.83717 11.5911C7.01298 11.7668 7.25139 11.8655 7.49999 11.8655C7.74858 11.8655 7.98699 11.7668 8.1628 11.5911L13.4662 6.28761C13.642 6.1118 13.7407 5.87339 13.7407 5.6248C13.7407 5.37621 13.642 5.13779 13.4662 4.96199Z" fill="#2962FF"/>
</svg>
